# xmcd
#
# Track frame offsets:
#	150
#	19018
#	47645
#	65083
#	86504
#	102769
#	115072
#	133071
#	153087
#	170801
#	209853
#
# Disc length: 3030 seconds
#
# Revision: 0
# Processed by: cddbd v1.5.1PL0 Copyright (c) Steve Scherf et al.
# Submitted via: dBpowerAMP V4.0
#
DISCID=970bd40b
DTITLE=Bill Lyerly - Railroad Station Blues
DYEAR=1998
DGENRE=Blues
TTITLE0=You Never Know
TTITLE1=Too Hurt To Cry/An Eye For An Eye
TTITLE2=Case Of Jones
TTITLE3=Somethong's Eatin' Me
TTITLE4=See Past Your Eyes
TTITLE5=Hangmen
TTITLE6=Nothin' To Show
TTITLE7=There Must Be An Angel
TTITLE8=Virtual Reality Time
TTITLE9=Railroad Station Blues/I Can't Understand
TTITLE10=Down Along The Cove
EXTD=
EXTT0=
EXTT1=
EXTT2=
EXTT3=
EXTT4=
EXTT5=
EXTT6=
EXTT7=
EXTT8=
EXTT9=
EXTT10=
PLAYORDER=
